<?xml version="1.0" standalone="no"?><!DOCTYPE svg PUBLIC "-//W3C//DTD SVG 1.1//EN" "http://www.w3.org/Graphics/SVG/1.1/DTD/svg11.dtd"><svg class="icon" width="200px" height="122.27px" viewBox="0 0 1675 1024" version="1.1" xmlns="http://www.w3.org/2000/svg"><path fill="#333333" d="M1266.672485 99.832242c-285.160727 0.217212-570.313697 0.217212-855.474424-0.007757-10.589091-0.007758-17.563152 7.400727-17.555394 17.446788 0.22497 264.828121 0.22497 529.648485 0 794.476606-0.007758 9.95297 6.888727 17.454545 17.570909 17.431273 142.491152-0.271515 284.990061-0.178424 427.488969-0.178425 142.661818 0 285.323636-0.085333 427.985455 0.178425 10.278788 0.015515 17.307152-7.470545 17.299394-17.198546a484919.466667 484919.466667 0 0 1 0-794.973091c0.007758-9.619394-6.919758-17.18303-17.314909-17.175273z m-254.223515 50.08291c36.165818 0.139636 72.331636 0.085333 108.497454 0.085333 36.002909 0 71.998061 0.054303 107.993212-0.085333 3.785697-0.015515 4.988121 0.783515 4.980364 4.832969-0.147394 58.833455-0.147394 117.659152 0 176.492606 0.007758 4.049455-1.186909 4.840727-4.980364 4.83297-72.16097-0.108606-144.329697-0.108606-216.490666 0-3.622788 0.007758-4.739879-0.721455-4.724364-4.584727 0.139636-58.996364 0.139636-117.992727 0-176.989091-0.007758-3.847758 1.093818-4.600242 4.724364-4.584727z m-294.749091 0.007757c78.498909 0.108606 156.990061 0.108606 235.488969 0 3.622788-0.007758 4.763152 0.721455 4.732122 4.584727a3933.72703 3933.72703 0 0 0 0 68.995879c0.03103 3.863273-1.109333 4.600242-4.732122 4.584727-39.330909-0.131879-78.661818-0.085333-117.992727-0.085333-39.168 0-78.328242-0.054303-117.496242 0.085333-3.785697 0.015515-5.026909-0.775758-4.988121-4.832969 0.217212-22.830545 0.217212-45.668848 0-68.491637-0.038788-4.072727 1.202424-4.848485 4.988121-4.840727z m-273.982061 4.825212c-0.007758-4.057212 1.194667-4.840727 4.980364-4.832969 69.833697 0.108606 139.659636 0.108606 209.493333 0 3.630545-0.007758 4.732121 0.73697 4.724364 4.584727-0.139636 58.996364-0.139636 117.992727 0 176.989091 0.007758 3.855515-1.101576 4.600242-4.724364 4.584727-34.994424-0.139636-69.996606-0.085333-104.998788-0.085333-34.831515 0-69.66303-0.062061-104.494545 0.085333-3.793455 0.015515-4.988121-0.791273-4.980364-4.840727 0.147394-58.817939 0.147394-117.651394 0-176.484849z m-0.007757 236.25697c-0.015515-4.258909 1.179152-5.104485 5.236363-5.096727 69.66303 0.131879 139.326061 0.124121 208.989091 0.015515 3.793455-0.007758 4.980364 0.791273 4.972606 4.840727a76783.856485 76783.856485 0 0 0 0 246.489212c0.007758 4.049455-1.194667 4.840727-4.980363 4.83297-69.66303-0.108606-139.326061-0.116364-208.989091 0.015515-4.072727 0.007758-5.251879-0.845576-5.236364-5.104485 0.178424-41.161697 0.108606-82.331152 0.108606-123.492848 0.007758-40.835879 0.077576-81.671758-0.100848-122.499879z m219.205818 483.242667c0.007758 4.049455-1.194667 4.840727-4.980364 4.832969-69.833697-0.108606-139.659636-0.108606-209.493333 0-3.630545 0.007758-4.732121-0.729212-4.724364-4.584727 0.139636-59.329939 0.139636-118.659879 0-177.989818-0.007758-3.855515 1.101576-4.600242 4.724364-4.584727 34.994424 0.139636 69.996606 0.085333 104.998788 0.085333 34.831515 0 69.66303 0.054303 104.494545-0.085333 3.793455-0.015515 4.988121 0.783515 4.980364 4.832969-0.139636 59.16703-0.139636 118.326303 0 177.493334z m294.989576-0.124122c0.03103 3.801212-0.806788 4.995879-4.848485 4.972606-39.330909-0.170667-78.661818-0.100848-117.992728-0.100848-39.168 0-78.328242-0.069818-117.496242 0.100848-4.057212 0.015515-4.864-1.194667-4.840727-4.980363 0.170667-22.49697 0.170667-44.993939 0-67.498667-0.03103-3.638303 0.752485-4.724364 4.592485-4.716606 78.661818 0.124121 157.323636 0.124121 235.985454 0 3.855515-0.007758 4.615758 1.093818 4.592485 4.724364-0.162909 22.504727-0.162909 45.001697 0.007758 67.498666z m0.03103-127.379394c0.015515 4.538182-1.241212 5.360485-5.500121 5.352728a69493.628121 69493.628121 0 0 0-234.496 0c-4.06497 0.007758-5.236364-0.845576-5.228606-5.096728 0.124121-135.330909 0.124121-270.661818 0-405.992727 0-4.258909 1.163636-5.104485 5.228606-5.104485 78.165333 0.131879 156.330667 0.131879 234.496 0 4.251152-0.007758 5.507879 0.814545 5.500121 5.352728-0.170667 67.661576-0.116364 135.330909-0.116364 202.992484 0 67.498667-0.054303 134.997333 0.116364 202.496z m-4.755394-460.660363c-39.462788-0.131879-78.917818-0.077576-118.380606-0.077576-38.958545 0-77.924848-0.069818-116.883394 0.100849-4.096 0.015515-5.616485-0.876606-5.205333-5.127758 0.232727-2.435879 0.969697-3.258182 3.250424-2.978909 0.659394 0.077576 1.334303 0.007758 1.993697 0.007757 78.258424 0 156.509091 0 234.767515 0.023273 2.397091 0 5.267394-1.132606 5.251879 3.506424-0.007758 3.87103-1.210182 4.553697-4.794182 4.54594z m280.738909 588.163879c0.007758 4.057212-1.194667 4.840727-4.980364 4.832969-72.16097-0.108606-144.329697-0.108606-216.490666 0-3.630545 0.007758-4.732121-0.73697-4.724364-4.584727 0.139636-59.329939 0.139636-118.659879 0-177.989818-0.007758-3.855515 1.101576-4.600242 4.724364-4.584727 36.165818 0.139636 72.331636 0.085333 108.497454 0.085333 36.002909 0 71.998061 0.054303 107.993212-0.085333 3.793455-0.015515 4.988121 0.791273 4.980364 4.840727-0.147394 59.159273-0.147394 118.326303 0 177.485576z m-0.100848-360.184243c0 40.828121-0.054303 81.664 0.085333 122.492121 0.015515 4.111515-0.597333 5.585455-5.275152 5.56994-71.827394-0.186182-143.662545-0.170667-215.489939-0.015515-4.390788 0.007758-5.438061-1.024-5.430303-5.422546 0.147394-81.834667 0.155152-163.661576-0.015515-245.488485-0.007758-4.670061 1.442909-5.290667 5.562182-5.282909 71.664485 0.124121 143.32897 0.131879 214.993454-0.015515 4.545939-0.007758 5.701818 1.117091 5.678546 5.670788-0.186182 40.828121-0.108606 81.656242-0.108606 122.492121z" /></svg>