<?xml version="1.0" standalone="no"?><!DOCTYPE svg PUBLIC "-//W3C//DTD SVG 1.1//EN" "http://www.w3.org/Graphics/SVG/1.1/DTD/svg11.dtd"><svg class="icon" width="200px" height="200.00px" viewBox="0 0 1024 1024" version="1.1" xmlns="http://www.w3.org/2000/svg"><path fill="#333333" d="M901.677419 433.032258h-36.129032c0.516129-1.548387 1.032258-3.612903 1.032258-5.677419V167.225806c0-11.354839-9.290323-20.645161-20.645161-20.645161H184.258065c-11.354839 0-20.645161 9.290323-20.645162 20.645161v260.129033c0 2.064516 0.516129 3.612903 1.032258 5.677419h-36.129032c-11.354839 0-20.645161 9.290323-20.645161 20.645161V872.258065c0 4.129032 3.612903 7.741935 7.741935 7.741935s7.741935-3.612903 7.741936-7.741935v-98.580646c1.548387 0.516129 3.612903 1.032258 5.677419 1.032258h773.16129c2.064516 0 3.612903-0.516129 5.67742-1.032258V872.258065c0 4.129032 3.612903 7.741935 7.741935 7.741935s7.741935-3.612903 7.741936-7.741935V453.677419c-1.032258-11.354839-10.322581-20.645161-21.67742-20.645161zM178.580645 427.354839V167.225806c0-3.096774 2.580645-5.677419 5.67742-5.677419h661.16129c3.096774 0 5.677419 2.580645 5.677419 5.677419v260.129033c0 3.096774-2.580645 5.677419-5.677419 5.677419H748.387097c0.516129-1.548387 1.032258-3.612903 1.032258-5.677419V293.677419c0-11.354839-9.290323-20.645161-20.645161-20.645161H583.225806c-11.354839 0-20.645161 9.290323-20.645161 20.645161v133.67742c0 2.064516 0.516129 3.612903 1.032258 5.677419H454.709677c0.516129-1.548387 1.032258-3.612903 1.032258-5.677419V293.677419c0-11.354839-9.290323-20.645161-20.645161-20.645161H289.548387c-11.354839 0-20.645161 9.290323-20.645161 20.645161v133.67742c0 2.064516 0.516129 3.612903 1.032258 5.677419H184.258065c-3.096774 0-5.677419-2.580645-5.67742-5.677419z m398.967742 0V293.677419c0-3.096774 2.580645-5.677419 5.677419-5.677419h145.548388c3.096774 0 5.677419 2.580645 5.677419 5.677419v133.67742c0 3.096774-2.580645 5.677419-5.677419 5.677419H583.225806c-3.096774 0-5.677419-2.580645-5.677419-5.677419z m-293.677419 0V293.677419c0-3.096774 2.580645-5.677419 5.677419-5.677419h145.548387c3.096774 0 5.677419 2.580645 5.67742 5.677419v133.67742c0 3.096774-2.580645 5.677419-5.67742 5.677419H289.548387c-3.096774 0-5.677419-2.580645-5.677419-5.677419z m-161.032258 26.32258c0-3.096774 2.580645-5.677419 5.677419-5.677419H901.16129c3.096774 0 5.677419 2.580645 5.67742 5.677419v244.645162H122.83871V453.677419z m778.838709 306.064516H128.516129c-3.096774 0-5.677419-2.580645-5.677419-5.677419v-40.774193h784v40.774193c0.516129 3.096774-2.064516 5.677419-5.161291 5.677419z"  /></svg>