<?xml version="1.0" standalone="no"?><!DOCTYPE svg PUBLIC "-//W3C//DTD SVG 1.1//EN" "http://www.w3.org/Graphics/SVG/1.1/DTD/svg11.dtd"><svg class="icon" width="200px" height="200.00px" viewBox="0 0 1024 1024" version="1.1" xmlns="http://www.w3.org/2000/svg"><path fill="#333333" d="M974.996126 977.363428a46.450769 46.450769 0 0 1-92.901538 0v-0.557409h-1.277396a371.606151 371.606151 0 0 0-357.067061-325.898595c-3.994766 0.139352-7.896631 0.60386-11.914622 0.60386s-7.896631-0.464508-11.868171-0.60386A371.606151 371.606151 0 0 0 142.946728 976.806019H141.808684v0.557409a46.450769 46.450769 0 0 1-92.901537 0l-0.418057-4.296696a45.846909 45.846909 0 0 1 3.36768-17.163559 465.390253 465.390253 0 0 1 276.382075-361.131503 325.782468 325.782468 0 1 1 367.309455 0 465.343803 465.343803 0 0 1 277.078837 365.637227 46.009487 46.009487 0 0 1 1.997383 12.727511z m-230.511941-651.54171A232.695127 232.695127 0 1 0 511.789058 558.516845a232.695127 232.695127 0 0 0 232.695127-232.695127z" /></svg>