<?xml version="1.0" standalone="no"?><!DOCTYPE svg PUBLIC "-//W3C//DTD SVG 1.1//EN" "http://www.w3.org/Graphics/SVG/1.1/DTD/svg11.dtd"><svg class="icon" width="200px" height="200.00px" viewBox="0 0 1024 1024" version="1.1" xmlns="http://www.w3.org/2000/svg"><path fill="#333333" d="M408.814214 459.304745l39.401312-34.494815c0.149328-0.895969 0.341322-1.791938 0.597313-2.687907 37.758702-133.968728 101.095192-222.456353 186.233598-242.828986 86.695687-20.713955 164.602342-3.967864 231.672036 50.067612a21.3326 21.3326 0 0 1 7.679736 19.839318c-15.274142 100.241888-62.461853 167.95156-140.965821 200.163786-65.576412 26.900409-133.350083 25.961774-251.660682 2.794571l-61.331225 53.651489 1.557279 6.207786H767.9912a21.3326 21.3326 0 0 1 21.3326 21.3326v127.995601a21.3326 21.3326 0 0 1-21.3326 21.3326h-45.161114l-40.318614 322.634242A21.3326 21.3326 0 0 1 661.3282 1024H277.3414a21.3326 21.3326 0 0 1-21.16194-18.687358L215.860846 682.6784H170.6784a21.3326 21.3326 0 0 1-21.3326-21.3326v-127.995601a21.3326 21.3326 0 0 1 21.3326-21.3326h207.352872l-23.529858-94.012768c-110.225544-36.308085-176.655261-95.655379-196.515911-178.340536C137.186218 152.925943 153.996306 75.019288 208.245108 7.949593a21.3326 21.3326 0 0 1 19.796653-7.679736c100.625874 15.295474 168.591538 62.461853 200.953092 140.965821 31.785574 77.138682 23.55119 168.378212-23.316532 272.843955a21.268602 21.268602 0 0 1-6.186454 7.957059l9.322347 37.268053z m113.894751-42.985189c90.322229 15.530133 144.4857 14.100849 194.510647-6.421113 60.627249-24.895144 98.108628-75.6454 112.934785-154.832011-54.248802-39.593306-115.409366-50.942249-185.188301-34.260156-53.694154 12.820893-99.708573 65.213758-133.32875 148.517562l50.302271-44.030487a21.3326 21.3326 0 0 1 28.116366 32.126896l-67.347018 58.899309z m-139.664532-60.072602c27.519054-77.074684 29.396323-143.141746 6.48511-198.755834-24.980475-60.648582-76.008054-98.12996-155.621317-112.956118-39.785299 54.248802-51.19824 115.409366-34.430816 185.166969 14.484835 60.349925 61.331225 106.57767 142.587098 138.512572l-21.41793-85.671722a21.3326 21.3326 0 0 1 41.385244-10.367644l21.012611 84.071777zM192.011 640.0132h554.6476v-85.330401H192.011v85.330401z m66.835036 42.6652l37.33205 298.6564h346.313428l37.33205-298.6564H258.846036z"  /></svg>