<?xml version="1.0" standalone="no"?><!DOCTYPE svg PUBLIC "-//W3C//DTD SVG 1.1//EN" "http://www.w3.org/Graphics/SVG/1.1/DTD/svg11.dtd"><svg class="icon" width="200px" height="200.00px" viewBox="0 0 1024 1024" version="1.1" xmlns="http://www.w3.org/2000/svg"><path fill="#333333" d="M325.677419 338.064516m-25.290322 0a25.290323 25.290323 0 1 0 50.580645 0 25.290323 25.290323 0 1 0-50.580645 0Z"  /><path fill="#333333" d="M512 338.064516m-25.290323 0a25.290323 25.290323 0 1 0 50.580646 0 25.290323 25.290323 0 1 0-50.580646 0Z"  /><path fill="#333333" d="M698.322581 338.064516m-25.290323 0a25.290323 25.290323 0 1 0 50.580645 0 25.290323 25.290323 0 1 0-50.580645 0Z"  /><path fill="#333333" d="M325.677419 443.354839m-25.290322 0a25.290323 25.290323 0 1 0 50.580645 0 25.290323 25.290323 0 1 0-50.580645 0Z"  /><path fill="#333333" d="M512 443.354839m-25.290323 0a25.290323 25.290323 0 1 0 50.580646 0 25.290323 25.290323 0 1 0-50.580646 0Z"  /><path fill="#333333" d="M698.322581 443.354839m-25.290323 0a25.290323 25.290323 0 1 0 50.580645 0 25.290323 25.290323 0 1 0-50.580645 0Z"  /><path fill="#333333" d="M894.451613 610.580645c36.129032-9.806452 60.903226-39.225806 60.903226-73.806451 0-40.258065-34.580645-73.806452-78.451613-76.903226V213.677419c0-10.322581-8.258065-18.580645-18.580645-18.580645H172.903226c-10.322581 0-18.580645 8.258065-18.580645 18.580645v246.709678c-43.870968 3.096774-78.451613 36.129032-78.451613 76.903226 0 34.064516 24.258065 64 60.387097 73.806451 2.064516 0.516129 3.612903 2.580645 3.612903 4.645161v50.064517c-10.83871 12.903226-20.645161 26.322581-28.903226 40.258064-4.129032 7.225806-3.096774 16.516129 3.612903 22.709678 21.16129 20.129032 46.967742 32.516129 75.354839 36.129032v48.516129c0 10.322581 8.258065 18.580645 18.580645 18.580645h99.096774c10.322581 0 18.580645-8.258065 18.580645-18.580645v-47.483871h374.709678v47.483871c0 10.322581 8.258065 18.580645 18.580645 18.580645h99.096774c10.322581 0 18.580645-8.258065 18.580645-18.580645v-48c29.419355-3.096774 57.290323-15.483871 78.967742-36.645161 6.193548-6.193548 7.741935-15.483871 3.612903-22.709678-8.258065-13.935484-18.064516-27.354839-28.903225-40.258064v-50.064517c-0.516129-2.580645 1.032258-4.645161 3.612903-5.16129z m12.387097 107.870968c-22.709677 21.677419-52.645161 33.548387-83.612904 33.548387H208c-30.967742 0-60.903226-11.870968-83.612903-33.548387-1.548387-1.548387-2.064516-4.129032-1.032258-6.193548 65.032258-110.451613 219.354839-182.193548 392.258064-182.193549 173.419355 0 327.225806 71.741935 392.258065 182.193549 1.032258 1.548387 0.516129 4.645161-1.032258 6.193548zM140.387097 597.677419c-30.451613-8.258065-50.580645-32.516129-50.580645-60.903225 0-35.096774 32-63.483871 71.741935-63.483871s71.741935 28.387097 71.741936 63.483871c0 8.258065-1.548387 16-5.161291 23.741935-1.032258 2.580645-1.548387 5.16129-1.548387 7.741936v24.258064c-27.354839 17.032258-51.612903 36.129032-72.258064 57.290323v-35.096775c-0.516129-7.741935-6.193548-14.967742-13.935484-17.032258z m736.516129 17.548387v35.096775c-20.645161-21.677419-44.903226-40.774194-72.258065-57.290323v-24.258064c0-2.580645-0.516129-5.16129-1.548387-7.741936-3.612903-7.741935-5.16129-15.483871-5.16129-23.741935 0-35.096774 32-63.483871 71.741935-63.483871s71.741935 28.387097 71.741936 63.483871c0 27.870968-20.645161 52.645161-50.580645 60.903225-8.258065 1.548387-13.935484 8.774194-13.935484 17.032258zM172.903226 208.516129h684.903226c2.580645 0 5.16129 2.064516 5.16129 5.16129v246.709678c-43.870968 3.096774-78.451613 36.129032-78.451613 76.903226 0 10.322581 2.064516 20.129032 6.709677 29.419354 0.516129 0.516129 0.516129 1.548387 0.516129 2.064517v16.516129c-76.387097-43.354839-172.903226-68.645161-276.129032-68.645162s-199.741935 24.774194-276.129032 68.645162v-16.516129c0-0.516129 0-1.548387 0.516129-2.064517 4.129032-9.290323 6.709677-19.612903 6.709677-29.419354 0-40.258065-34.580645-73.806452-78.451612-76.903226V213.677419c0-3.096774 2.064516-5.16129 4.645161-5.16129z m139.870968 604.387097c0 2.580645-2.064516 5.16129-5.161291 5.16129H208.516129c-2.580645 0-5.16129-2.064516-5.16129-5.16129v-47.483871h108.903226v47.483871z m510.451612 0c0 2.580645-2.064516 5.16129-5.16129 5.16129h-99.096774c-2.580645 0-5.16129-2.064516-5.16129-5.16129v-47.483871h108.903225v47.483871z"  /></svg>