<?xml version="1.0" standalone="no"?><!DOCTYPE svg PUBLIC "-//W3C//DTD SVG 1.1//EN" "http://www.w3.org/Graphics/SVG/1.1/DTD/svg11.dtd"><svg class="icon" width="200px" height="200.00px" viewBox="0 0 1024 1024" version="1.1" xmlns="http://www.w3.org/2000/svg"><path fill="#333333" d="M106.666667 426.666667v21.333333h810.666666v-21.333333H106.666667z m85.802666-42.666667A181.333333 181.333333 0 0 1 373.333333 75.626667 181.333333 181.333333 0 0 1 554.176 384H704V192a21.333333 21.333333 0 0 1 21.333333-21.333333h128a21.333333 21.333333 0 0 1 21.333334 21.333333v192h64a21.333333 21.333333 0 0 1 21.333333 21.333333v64a21.333333 21.333333 0 0 1-21.333333 21.333334h-64v21.333333a21.333333 21.333333 0 0 1-42.666667 0v-21.333333H192v21.333333a21.333333 21.333333 0 0 1-42.666667 0v-21.333333H85.333333a21.333333 21.333333 0 0 1-21.333333-21.333334v-64a21.333333 21.333333 0 0 1 21.333333-21.333333h107.136zM746.666667 213.333333v170.666667h85.333333v-170.666667h-85.333333z m-339.285334 130.048a138.666667 138.666667 0 1 0-196.096-196.096 138.666667 138.666667 0 0 0 196.096 196.096z m128 0A138.666667 138.666667 0 0 0 426.666667 107.050667a181.333333 181.333333 0 0 1 0 276.565333 138.624 138.624 0 0 0 108.736-40.234667z m-158.165333-30.165333a96 96 0 1 1-135.765333-135.765333 96 96 0 0 1 135.765333 135.765333z m-30.165333-30.165333a53.333333 53.333333 0 1 0-75.434667-75.434667 53.333333 53.333333 0 0 0 75.434667 75.434667zM782.144 725.333333H853.333333a21.333333 21.333333 0 0 1 18.176 32.490667c-12.522667 20.416-30.826667 38.272-53.290666 52.842667H938.666667a21.333333 21.333333 0 0 1 21.333333 21.333333v64a21.333333 21.333333 0 0 1-21.333333 21.333333h-64v21.333334a21.333333 21.333333 0 0 1-42.666667 0v-21.333334H192v21.333334a21.333333 21.333333 0 0 1-42.666667 0v-21.333334H85.333333a21.333333 21.333333 0 0 1-21.333333-21.333333v-64a21.333333 21.333333 0 0 1 21.333333-21.333333h419.114667c-22.464-14.570667-40.746667-32.426667-53.290667-52.842667A21.333333 21.333333 0 0 1 469.333333 725.333333h54.08a85.333333 85.333333 0 0 1 144.682667-90.368A74.666667 74.666667 0 0 1 782.144 725.333333zM106.666667 853.333333v21.333334h810.666666v-21.333334H106.666667z m554.666666-42.666666c57.173333 0 109.098667-16.533333 143.509334-42.666667H517.824c34.410667 26.133333 86.336 42.666667 143.509333 42.666667z m-64-85.333334a42.666667 42.666667 0 1 0 0-85.333333 42.666667 42.666667 0 0 0 0 85.333333z m117.333334 0a32 32 0 1 0 0-64 32 32 0 0 0 0 64z"  /></svg>