<?xml version="1.0" standalone="no"?><!DOCTYPE svg PUBLIC "-//W3C//DTD SVG 1.1//EN" "http://www.w3.org/Graphics/SVG/1.1/DTD/svg11.dtd"><svg class="icon" width="200px" height="122.27px" viewBox="0 0 1675 1024" version="1.1" xmlns="http://www.w3.org/2000/svg"><path fill="#333333" d="M1283.995152 116.526545c0.007758-10.364121-6.896485-17.710545-17.811394-17.702787-284.990061 0.22497-569.980121 0.22497-854.970182 0-10.682182-0.007758-17.578667 7.470545-17.570909 17.431272 0.217212 264.820364 0.217212 529.648485 0 794.468849-0.007758 10.030545 6.958545 17.470061 17.555394 17.454545 142.498909-0.271515 284.990061-0.178424 427.481212-0.178424 142.498909 0 284.990061-0.093091 427.488969 0.186182 10.969212 0.023273 17.834667-7.39297 17.82691-17.687273a467020.101818 467020.101818 0 0 1 0-793.972364zM443.702303 154.251636c-0.007758-4.545939 1.24897-5.352727 5.500121-5.344969 119.994182 0.124121 239.996121 0.124121 359.998061 0 4.421818-0.007758 5.748364 0.930909 5.740606 5.608727-0.162909 81.330424-0.116364 162.660848-0.116364 243.99903 0 80.996848-0.046545 161.993697 0.116364 242.998303 0.007758 4.685576-1.334303 5.60097-5.748364 5.593212-119.994182-0.124121-239.996121-0.124121-359.99806 0-4.258909 0.007758-5.492364-0.822303-5.492364-5.352727 0.139636-162.505697 0.139636-325.003636 0-487.501576z m371.238788 718.498909c0.015515 4.545939-1.24897 5.352727-5.500121 5.352728-120.164848-0.124121-240.329697-0.116364-360.494546 0-4.06497 0-5.244121-0.837818-5.236363-5.096728 0.155152-56.994909 0.155152-113.997576 0-170.992484-0.015515-4.258909 1.171394-5.104485 5.236363-5.096728 60.167758 0.139636 120.327758 0.093091 180.495515 0.093091 59.997091 0 119.994182 0.046545 179.991273-0.100848 4.251152-0.007758 5.515636 0.806788 5.500121 5.352727-0.178424 56.824242-0.178424 113.656242 0.007758 170.488242z m418.971151 0.124122c0.007758 4.06497-0.845576 5.236364-5.096727 5.228606-119.660606-0.131879-239.32897-0.131879-358.989576 0-4.258909 0.007758-5.112242-1.163636-5.104484-5.228606 0.139636-56.832 0.147394-113.664 0-170.496-0.007758-4.258909 0.814545-5.515636 5.352727-5.500122 59.834182 0.178424 119.660606 0.116364 179.494788 0.116364 59.663515 0 119.32703 0.062061 178.998303-0.116364 4.538182-0.015515 5.368242 1.241212 5.352727 5.500122-0.147394 56.832-0.147394 113.664-0.007758 170.496z m-6.012121-225.768728c-119.164121-0.139636-238.328242-0.131879-357.492363-0.007757-4.499394 0.007758-5.701818-1.05503-5.694061-5.647515 0.131879-162.327273 0.131879-324.662303-0.007758-486.989576-0.007758-4.770909 1.450667-5.562182 5.787152-5.554424 119.334788 0.116364 238.661818 0.116364 357.996606-0.015515 4.344242-0.007758 5.461333 0.954182 5.453576 5.399272-0.155152 81.330424-0.108606 162.668606-0.108606 243.999031 0 80.996848-0.054303 162.001455 0.131878 242.998303-0.007758 5.003636-1.435152 5.825939-6.066424 5.818181zM731.725576 512.961939c6.656 0.155152 13.319758 0.139636 19.975757 0.007758 8.789333-0.178424 15.026424-6.415515 15.07297-15.266909 0.100848-21.480727 0.108606-42.953697 0-64.434424-0.046545-8.835879-6.314667-15.041939-15.119515-15.228122a573.486545 573.486545 0 0 0-18.982788-0.015515c-9.665939 0.108606-15.778909 6.283636-15.84097 16.042667-0.069818 10.488242-0.015515 20.976485-0.007757 31.464727 0 10.821818-0.116364 21.643636 0.038788 32.465455 0.124121 8.548848 6.345697 14.754909 14.863515 14.964363zM945.345939 418.024727a595.564606 595.564606 0 0 0-18.982787 0c-9.153939 0.139636-15.460848 6.268121-15.507394 15.352243a6371.374545 6371.374545 0 0 0 0.007757 64.434424c0.046545 8.812606 6.353455 14.987636 15.181576 15.158303 6.159515 0.124121 12.31903 0.062061 18.478545 0.023273 10.092606-0.077576 16.213333-6.105212 16.275394-16.112485 0.062061-10.488242 0.015515-20.976485 0.015515-31.464727 0-10.658909 0.085333-21.310061-0.03103-31.96897-0.093091-9.107394-6.314667-15.274667-15.437576-15.422061zM661.930667 761.018182c-10.325333-0.077576-20.642909-0.015515-30.968243-0.015515-10.821818 0-21.643636-0.077576-32.473212 0.023272-9.425455 0.085333-15.530667 6.268121-15.654788 15.724606a595.549091 595.549091 0 0 0 0.015515 18.982788c0.162909 8.851394 6.314667 15.181576 15.111758 15.228122 21.643636 0.116364 43.29503 0.131879 64.938667-0.007758 8.533333-0.054303 14.685091-6.384485 14.87903-14.941091 0.147394-6.322424 0.085333-12.652606 0.023273-18.982788-0.093091-9.782303-6.159515-15.934061-15.872-16.011636zM1084.121212 761.072485a4599.621818 4599.621818 0 0 0-65.435151-0.007758c-8.517818 0.054303-14.638545 6.415515-14.824728 14.995394a595.533576 595.533576 0 0 0-0.023272 18.982788c0.100848 9.751273 6.190545 15.879758 15.93406 15.941818 10.488242 0.069818 20.976485 0.015515 31.472485 0.015515 10.821818 0 21.651394 0.108606 32.473212-0.038787 8.595394-0.116364 14.848-6.260364 15.065212-14.762667 0.170667-6.826667 0.178424-13.653333-0.007757-20.48-0.232727-8.269576-6.384485-14.584242-14.654061-14.646303z" /></svg>