<?xml version="1.0" standalone="no"?><!DOCTYPE svg PUBLIC "-//W3C//DTD SVG 1.1//EN" "http://www.w3.org/Graphics/SVG/1.1/DTD/svg11.dtd"><svg class="icon" width="200px" height="200.00px" viewBox="0 0 1024 1024" version="1.1" xmlns="http://www.w3.org/2000/svg"><path fill="#333333" d="M42.666667 192v42.666667h938.666666V192H42.666667z m746.666666 85.333333H234.666667v128h554.666666v-128z m132.138667 0l102.186667 572.245334A21.333333 21.333333 0 0 1 1002.666667 874.666667h-42.666667a21.333333 21.333333 0 0 1-20.138667-14.293334L795.541333 448H228.458667L84.138667 860.373333A21.333333 21.333333 0 0 1 64 874.666667H21.333333a21.333333 21.333333 0 0 1-20.992-25.088L102.528 277.333333H21.333333a21.333333 21.333333 0 0 1-21.333333-21.333333V170.666667a21.333333 21.333333 0 0 1 21.333333-21.333334h981.333334a21.333333 21.333333 0 0 1 21.333333 21.333334v85.333333a21.333333 21.333333 0 0 1-21.333333 21.333333h-81.194667zM469.333333 362.666667a21.333333 21.333333 0 0 1 0-42.666667h85.333334a21.333333 21.333333 0 0 1 0 42.666667h-85.333334zM145.856 277.333333L46.805333 832h2.069334L192 423.04V277.333333H145.856z m732.288 0H832v145.706667L975.146667 832h2.048l-99.050667-554.666667z"  /></svg>