<?xml version="1.0" standalone="no"?><!DOCTYPE svg PUBLIC "-//W3C//DTD SVG 1.1//EN" "http://www.w3.org/Graphics/SVG/1.1/DTD/svg11.dtd"><svg class="icon" width="200px" height="200.00px" viewBox="0 0 1024 1024" version="1.1" xmlns="http://www.w3.org/2000/svg"><path fill="#333333" d="M778.83871 551.225806h-58.322581c0.516129-1.548387 0.516129-3.096774 0.516129-5.16129V101.16129c0-11.354839-9.290323-20.645161-20.645161-20.645161H333.419355c-11.354839 0-20.645161 9.290323-20.645161 20.645161v444.903226c0 1.548387 0.516129 3.612903 0.516129 5.16129h-61.935484c-11.354839 0-20.645161 9.290323-20.645162 20.645162v120.258064c0 11.354839 9.290323 20.645161 20.645162 20.645162h20.129032c-0.516129 1.548387-1.032258 3.612903-1.032258 5.677419v198.193548c0 11.354839 9.290323 20.645161 20.645161 20.645162h57.290323c11.354839 0 20.645161-9.290323 20.645161-20.645162v-198.193548c0-2.064516-0.516129-3.612903-1.032258-5.677419h297.290323c-0.516129 1.548387-1.032258 3.612903-1.032258 5.677419v198.193548c0 11.354839 9.290323 20.645161 20.645161 20.645162h57.290322c11.354839 0 20.645161-9.290323 20.645162-20.645162v-198.193548c0-2.064516-0.516129-3.612903-1.032258-5.677419h16.516129c11.354839 0 20.645161-9.290323 20.645161-20.645162v-120.258064c0.516129-11.354839-8.774194-20.645161-20.129032-20.645162z m-451.096775-5.16129V101.16129c0-3.096774 2.580645-5.677419 5.67742-5.677419h367.483871c3.096774 0 5.677419 2.580645 5.677419 5.677419v444.903226c0 2.064516-1.548387 4.129032-3.096774 5.16129H330.83871c-2.064516-1.032258-3.096774-2.580645-3.096775-5.16129z m26.322581 172.387097v198.193548c0 3.096774-2.580645 5.677419-5.677419 5.67742H291.096774c-3.096774 0-5.677419-2.580645-5.677419-5.67742v-198.193548c0-3.096774 2.580645-5.677419 5.677419-5.677419h57.290323c3.096774 0 5.677419 2.580645 5.677419 5.677419z m393.806452 0v198.193548c0 3.096774-2.580645 5.677419-5.67742 5.67742h-57.290322c-3.096774 0-5.677419-2.580645-5.67742-5.67742v-198.193548c0-3.096774 2.580645-5.677419 5.67742-5.677419h57.290322c3.096774 0 5.677419 2.580645 5.67742 5.677419z m36.645161-26.322581c0 3.096774-2.580645 5.677419-5.677419 5.67742H251.354839c-3.096774 0-5.677419-2.580645-5.67742-5.67742v-120.258064c0-3.096774 2.580645-5.677419 5.67742-5.67742h77.419355c1.548387 0.516129 3.096774 0.516129 4.645161 0.516129h367.483871c1.548387 0 3.096774 0 4.645161-0.516129h73.290323c3.096774 0 5.677419 2.580645 5.677419 5.67742v120.258064z"  /><path fill="#333333" d="M617.290323 176.516129H414.967742c-4.129032 0-7.741935 3.612903-7.741936 7.741936s3.612903 7.741935 7.741936 7.741935h202.322581c4.129032 0 7.741935-3.612903 7.741935-7.741935s-3.612903-7.741935-7.741935-7.741936zM617.290323 265.290323H414.967742c-4.129032 0-7.741935 3.612903-7.741936 7.741935s3.612903 7.741935 7.741936 7.741936h202.322581c4.129032 0 7.741935-3.612903 7.741935-7.741936s-3.612903-7.741935-7.741935-7.741935zM617.290323 360.258065H414.967742c-4.129032 0-7.741935 3.612903-7.741936 7.741935s3.612903 7.741935 7.741936 7.741935h202.322581c4.129032 0 7.741935-3.612903 7.741935-7.741935s-3.612903-7.741935-7.741935-7.741935zM617.290323 455.741935H414.967742c-4.129032 0-7.741935 3.612903-7.741936 7.741936s3.612903 7.741935 7.741936 7.741935h202.322581c4.129032 0 7.741935-3.612903 7.741935-7.741935s-3.612903-7.741935-7.741935-7.741936zM638.967742 804.645161H393.290323c-4.129032 0-7.741935 3.612903-7.741936 7.741936s3.612903 7.741935 7.741936 7.741935h245.677419c4.129032 0 7.741935-3.612903 7.741935-7.741935s-3.612903-7.741935-7.741935-7.741936z"  /></svg>