<?xml version="1.0" standalone="no"?><!DOCTYPE svg PUBLIC "-//W3C//DTD SVG 1.1//EN" "http://www.w3.org/Graphics/SVG/1.1/DTD/svg11.dtd"><svg class="icon" width="200px" height="200.00px" viewBox="0 0 1024 1024" version="1.1" xmlns="http://www.w3.org/2000/svg"><path fill="#333333" d="M849.032258 510.967742h-268.387097v-46.451613h161.548387c9.806452 0 17.548387-7.741935 17.548387-17.548387V98.064516c0-9.806452-7.741935-17.548387-17.548387-17.548387H289.032258c-9.806452 0-17.548387 7.741935-17.548387 17.548387v349.419355c0 9.806452 7.741935 17.548387 17.548387 17.548387h153.290323v46.451613H182.193548c-9.806452 0-17.548387 7.741935-17.548387 17.548387v355.612903c0 9.806452 7.741935 17.548387 17.548387 17.548387h69.161291c-0.516129 1.548387-1.032258 3.096774-1.032258 4.645162v19.612903c0 6.193548 5.16129 11.354839 11.354838 11.354839s11.354839-5.16129 11.354839-11.354839v-19.612903c0-1.548387-0.516129-3.096774-1.032258-4.645162h449.548387c-0.516129 1.548387-1.032258 3.096774-1.032258 4.645162v19.612903c0 6.193548 5.16129 11.354839 11.354839 11.354839s11.354839-5.16129 11.354838-11.354839v-19.612903c0-1.548387-0.516129-3.096774-1.032258-4.645162h107.354839c9.806452 0 17.548387-7.741935 17.548387-17.548387v-355.612903c-0.516129-10.322581-8.774194-18.064516-18.064516-18.064516zM284.387097 447.483871V98.064516c0-2.580645 2.064516-4.645161 4.645161-4.645161h452.645161c2.580645 0 4.645161 2.064516 4.645162 4.645161v349.419355c0 2.580645-2.064516 4.645161-4.645162 4.645161H289.032258c-2.580645 0-4.645161-2.064516-4.645161-4.645161z m170.838709 17.548387H567.741935v46.451613H455.225806v-46.451613z m-273.032258 58.83871h322.064517v184.258064H177.548387v-179.612903c0-2.580645 2.064516-4.645161 4.645161-4.645161z m-4.645161 360.258064v-163.096774h326.709678v167.741936H182.193548c-2.580645 0-4.645161-2.064516-4.645161-4.645162z m676.129032 0c0 2.580645-2.064516 4.645161-4.645161 4.645162h-331.870968v-365.419355h331.870968c2.580645 0 4.645161 2.064516 4.645161 4.645161v356.129032z"  /><path fill="#333333" d="M348.903226 626.580645c10.83871 0 19.612903-8.774194 19.612903-19.612903 0-10.83871-8.774194-19.612903-19.612903-19.612903s-19.612903 8.774194-19.612903 19.612903c0 10.83871 8.774194 19.612903 19.612903 19.612903zM348.903226 773.677419c-10.83871 0-19.612903 8.774194-19.612903 19.612904 0 10.83871 8.774194 19.612903 19.612903 19.612903s19.612903-8.774194 19.612903-19.612903c-0.516129-10.83871-9.290323-19.612903-19.612903-19.612904zM573.935484 630.193548c-6.193548 0-11.354839 5.16129-11.354839 11.354839v49.032258c0 6.193548 5.16129 11.354839 11.354839 11.354839 6.193548 0 11.354839-5.16129 11.354839-11.354839v-49.032258c-0.516129-6.193548-5.16129-11.354839-11.354839-11.354839z"  /></svg>